<?xml version="1.0" standalone="no"?><!DOCTYPE svg PUBLIC "-//W3C//DTD SVG 1.1//EN" "http://www.w3.org/Graphics/SVG/1.1/DTD/svg11.dtd"><svg class="icon" height="512" viewBox="0 0 1025 1024" version="1.1" xmlns="http://www.w3.org/2000/svg"><path d="M824.58624 128 199.430144 128 0 399.030272 511.993856 896.22528l512.00512-496.299008L824.58624 128zM519.410688 153.6 692.155392 385.024 327.140352 385.024l172.74368-231.424L519.410688 153.6zM536.318976 153.6l266.533888 0-95.512576 228.724736L536.318976 153.6zM695.689216 410.624 509.647872 856.136704 323.606528 410.624 695.689216 410.624zM311.955456 382.324736 216.441856 153.6l266.534912 0L311.955456 382.324736zM299.02336 385.024 41.747456 385.024l164.205568-222.876672L299.02336 385.024zM309.711872 410.624l179.31776 429.412352L46.598144 410.624 309.711872 410.624zM709.583872 410.624 978.301952 410.624 527.026176 847.792128 709.583872 410.624zM981.64736 385.024 720.272384 385.024l94.76608-226.936832L981.64736 385.024z" /></svg>